<svg width="300" height="300" viewBox="0 0 300 300" fill="none" xmlns="http://www.w3.org/2000/svg">
<rect width="300" height="300" fill="white"/>
<path d="M136.809 197.789C136.809 197.789 143.479 194.652 145.97 192.468C148.46 190.285 151.556 184.862 151.556 184.862C151.556 184.862 185.566 209.423 207.741 205.919C212.85 205.112 222.806 201.716 223.441 195.732C225.174 179.393 201.188 175.217 206.428 166.931C209.626 161.873 219.561 169.401 219.561 169.401L260.768 189.67C260.768 189.67 246.532 224.761 211.985 226.168C169.487 227.898 136.809 197.789 136.809 197.789Z" fill="white"/>
<path fill-rule="evenodd" clip-rule="evenodd" d="M104.138 60.3615C103.751 60.2096 101.674 57.6664 99.0373 57.2035C97.839 56.9932 98.9266 58.5189 97.6078 58.5327C93.6802 58.5735 87.2974 57.8357 86.115 58.5327C85.2363 59.049 87.1716 60.853 86.115 60.9358C76.1464 61.7172 60.9385 71.6705 57.639 76.4993C56.589 78.0361 65.0816 75.4288 63.7284 76.1885C62.2097 77.0412 60.5254 82.6246 59.5183 86.9369C58.8211 89.9065 58.3822 93.7281 58.2272 97.8855C58.0981 101.475 58.1498 102.069 58.6662 104.031C59.2601 106.226 59.7249 106.872 60.5254 106.562C60.8094 106.458 60.9385 106.071 60.9385 105.348C60.9385 104.78 61.2484 103.076 61.6357 101.552L62.3071 98.8151L62.5911 99.9512C62.9527 101.268 65.0701 105.348 66.9809 108.318C67.0839 108.475 67.5273 108.275 67.9272 107.308C68.2915 106.428 68.1437 105.021 68.7626 103.513C70.1725 100.078 72.9409 95.6124 76.1464 92.0377C80.8839 86.7546 82.4557 80.6405 86.8966 75.7326C95.1842 66.5733 105.586 60.9299 104.138 60.3615Z" fill="white"/>
<path fill-rule="evenodd" clip-rule="evenodd" d="M63.8464 77.4354C62.517 78.5045 60.5436 87.1758 60.5097 87.3207C59.8125 90.2903 59.1405 100.602 59.8274 102.555C60.5144 104.507 62.438 97.4693 62.438 97.4693C62.438 97.4693 65.3455 105.019 67.9145 107.089C68.0243 107.177 64.8609 97.7483 63.8464 92.2438C62.5074 84.9776 64.6031 76.827 63.8464 77.4354Z" fill="#E7EAEE"/>
<path fill-rule="evenodd" clip-rule="evenodd" d="M113.398 229.3C115.877 228.758 120.06 226.87 121.661 226.224C123.263 225.578 128.143 218.688 129.899 210.915C131.164 205.183 131.81 197.023 131.087 195.654C130.98 195.46 130.589 191.75 131.629 192.961C133.94 195.654 136.684 199.882 145.34 192.306C147.698 190.243 150.823 187.58 150 185.225C147.698 178.638 137.718 165.374 136.197 164.369C134.378 163.168 125.183 164.189 111.501 160.15C95.9833 155.57 89.5219 142.084 83.4495 143.839C78.5387 145.259 66.7728 153.984 63.8199 159.509C49.8793 185.594 66.7728 203.871 70.62 209.121L74.3555 210.734L74.4846 214.065L74.6653 216.157C75.001 220.159 75.1301 220.521 76.9377 221.864C81.4565 225.298 90.3651 228.5 98.4216 229.636C102.166 230.153 110.3 229.972 113.398 229.3Z" fill="white"/>
<path fill-rule="evenodd" clip-rule="evenodd" d="M75.8247 212.846L76.0054 214.937C76.3411 218.94 76.4702 219.301 78.2778 220.644C80.9436 222.67 85.1371 224.615 89.7822 226.103C93.011 227.137 96.458 227.951 99.7617 228.417C103.506 228.933 111.64 228.752 114.739 228.081C116.27 227.749 103.672 217.851 96.2499 220.644C90.5502 222.789 77.1164 206.429 82.5784 202.155C88.7056 197.361 77.4779 178.45 77.1164 174.344C76.7549 170.239 75.3312 169.258 75.2897 169.402C75.2481 169.546 75.2481 170.037 75.3599 171.221C75.8416 176.322 75.8247 212.846 75.8247 212.846Z" fill="#E7EAEE"/>
<path fill-rule="evenodd" clip-rule="evenodd" d="M74.4795 173.173C75.0216 173.067 75.5467 173.421 75.6522 173.963C77.601 183.976 85.8445 190.754 100.585 194.299C115.413 197.864 125.514 197.672 130.835 193.866C131.285 193.545 130.95 196.296 130.621 196.507C127.15 198.733 115.348 202.054 101.265 199.052C83.2586 195.214 74.8039 180.073 73.689 174.346C73.5835 173.803 73.9374 173.278 74.4795 173.173Z" fill="#0E927A"/>
<path fill-rule="evenodd" clip-rule="evenodd" d="M66.9706 155.108C67.45 154.834 85.3346 175.331 109.878 179.971C134.422 184.611 140.365 181.66 141.32 175.331C141.403 174.785 141.912 174.409 142.458 174.492C143.004 174.574 143.38 175.084 143.298 175.63C142.087 183.65 130.73 185.558 109.542 181.942C88.6202 178.372 74.276 169.89 66.5992 156.473C66.325 155.993 66.4912 155.382 66.9706 155.108Z" fill="#0E927A"/>
<path fill-rule="evenodd" clip-rule="evenodd" d="M169.985 153.971C169.314 153.739 168.591 153.222 168.126 152.629L167.351 151.673L170.088 148.962C174.297 144.83 177.525 140.596 180.314 135.56C181.244 133.882 183.593 128.278 183.593 127.736C183.593 127.555 183.877 126.832 184.213 126.084C184.73 124.999 185.117 124.586 186.227 123.966C187.544 123.191 189.042 122.933 189.687 123.372C190.927 124.198 190.927 126.807 189.687 131.3C188.319 136.232 186.485 139.769 182.69 144.856C182.096 145.631 180.985 147.154 180.185 148.213C178.042 151.053 176.647 152.422 174.762 153.481C172.903 154.514 171.819 154.643 169.985 153.971ZM188.525 151.647L190.385 152.474C190.77 152.652 195.023 154.695 200.131 157.15C208.368 161.107 218.828 166.134 218.892 166.134C218.995 166.134 219.48 165.013 219.589 163.706C219.848 160.892 220.803 157.07 221.913 154.41C222.43 153.222 222.843 151.738 222.843 151.609C222.843 151.55 222.423 151.381 221.736 151.103C220.918 150.773 219.721 150.291 218.402 149.659C211.894 146.535 199.164 140.157 197.589 139.201C196.04 138.297 195.73 138.22 195.73 138.814C195.73 139.588 194.155 143.178 192.941 145.114C192.295 146.173 191.03 148.084 190.126 149.349L188.525 151.647ZM218.453 161.486C219.194 161.915 217.911 162.544 217.601 162.648C215.777 162.802 213.628 162.459 211.869 161.434C210.948 160.781 203.703 156.756 198.896 154.086C196.699 152.865 195.011 151.927 194.671 151.725C193.587 151.079 192.554 150.382 192.373 150.175C191.831 149.478 192.347 149.168 193.871 149.298C194.786 149.375 216.854 160.559 218.453 161.486ZM113.487 229.088C115.478 228.652 118.57 227.347 120.539 226.516C121.021 226.313 121.435 226.138 121.75 226.011C123.351 225.366 128.231 218.475 129.987 210.702C131.252 204.97 131.898 196.81 131.175 195.442C130.739 194.649 133.329 197.308 135.257 199.288L135.258 199.289L135.261 199.292C135.844 199.891 136.367 200.427 136.726 200.787C147.985 211.968 164.743 220.954 182.147 225.163C190.824 227.28 196.995 228.029 205.284 228.029C219.202 228.029 230.176 225.292 240.144 219.275C240.617 218.99 241.061 218.727 241.484 218.477C244.958 216.419 247.028 215.194 252.693 208.817C259.048 201.665 264.7 185.061 266.585 179.329C267.412 176.746 269.426 166.476 269.426 163.913C269.426 160.878 268.367 159.446 266.921 157.974C264.365 155.469 260.905 154.565 258.038 155.65L256.696 156.166L256.282 154.798C255.689 152.732 254.449 151.079 252.538 149.84C249.698 147.955 249.285 147.826 246.728 147.826C244.74 147.826 244.198 147.929 242.932 148.523L241.461 149.194L241.151 148.265C240.557 146.354 238.565 143.69 237.019 142.919C235.649 142.236 233.276 142.173 231.622 142.481C228.007 143.152 225.425 144.83 224.366 147.18C224.057 147.903 223.669 148.471 223.514 148.471C223.385 148.471 218.298 147.051 212.23 144.365C211.207 143.911 210.245 143.484 209.342 143.084C198.445 138.254 196.083 137.207 196.298 135.896C196.479 134.786 196.427 134.166 196.117 133.21C195.575 131.609 194.955 131.17 193.199 131.17C191.805 131.17 191.805 131.17 191.96 130.473C192.786 126.522 192.76 124.25 191.882 122.804C191.288 121.849 190.591 121.461 188.99 121.229C188.061 121.1 187.622 121.177 186.589 121.745C185.892 122.107 185.298 122.365 185.246 122.313C185.194 122.262 185.375 120.842 185.659 119.163C187.777 106.743 186.141 96.0414 180.744 84.6797C180.715 84.6191 180.684 84.5524 180.65 84.4797L180.564 84.2953C178.923 80.7729 172.326 66.6093 153.459 59.4626C152.605 59.1391 151.797 58.8263 151.02 58.5257C144.594 56.0381 140.321 54.3843 130.013 54.4015C118.458 54.4207 114.545 56.0541 106.928 59.5401C105.869 60.0307 104.939 60.3147 104.862 60.2115C104.784 60.0824 104.294 59.7725 103.803 59.5143C103.313 59.256 102.254 58.6105 101.479 58.0941C99.2586 56.5964 97.89 55.9766 97.1928 56.1316C96.3923 56.3382 96.3923 57.0095 97.1928 57.3194C97.5285 57.4485 97.9158 57.8875 98.0707 58.3265C98.4064 59.256 98.7938 59.3593 99.0262 58.5847C99.1294 58.3006 99.2844 58.0941 99.3618 58.1457C99.3912 58.1604 99.4895 58.2064 99.6395 58.2766C100.017 58.4533 100.722 58.7832 101.479 59.1528C102.538 59.6692 103.7 60.2115 104.01 60.3406C104.578 60.5471 104.397 60.7021 101.944 62.1481C92.3641 67.7773 84.5658 76.531 80.2019 86.4983C79.5305 87.996 78.9366 88.9256 78.3169 89.442C76.7417 90.7589 73.6431 94.5031 72.9201 95.975C72.5327 96.7755 71.7064 98.0149 71.0609 98.738C70.4412 99.461 69.7698 100.391 69.5374 100.778C69.3308 101.191 69.1242 101.475 69.0468 101.423C68.9951 101.346 69.0726 100.081 69.2533 98.6089C69.6407 95.1745 69.6407 94.2707 69.3308 94.1933C68.866 94.0642 68.1946 95.8717 67.9106 98.1182C67.704 99.4868 67.6524 101.553 67.7815 103.67L67.9364 107.027L66.103 104.057C65.473 103.065 64.8525 102.073 64.4116 101.367L64.4103 101.365L64.41 101.365L64.4095 101.364L64.4088 101.363L64.4086 101.363C64.1283 100.914 63.921 100.583 63.8307 100.442C63.1593 99.461 62.772 97.9891 63.056 97.4985C63.211 97.2145 63.1852 97.0854 62.9269 97.0854C62.3847 97.0854 61.326 98.8154 60.6288 100.804C60.2931 101.733 59.9574 102.508 59.8541 102.508C59.4668 102.508 59.6475 93.2637 60.0607 90.2942C60.9128 84.4325 63.1593 77.2024 64.1664 77.2024C64.373 77.2024 64.5537 77.0991 64.5537 76.9442C64.5537 76.4794 63.8824 76.6601 63.3401 77.254C62.1265 78.5709 60.5255 82.625 59.5184 86.9373C58.8212 89.9068 58.3823 93.7285 58.2273 97.8858C58.0982 101.475 58.1499 102.069 58.6663 104.031C59.2602 106.226 59.725 106.872 60.5255 106.562C60.8095 106.459 60.9386 106.071 60.9386 105.348C60.9386 104.78 61.2485 103.076 61.6358 101.553L62.3072 98.8154L62.5912 99.9516C62.9528 101.269 65.0702 105.348 66.981 108.318C68.2979 110.332 68.3237 110.461 68.7627 113.611C68.9951 115.393 69.7181 119.727 71.3966 126.393C72.8796 132.284 81.2166 138.127 83.2983 139.586C83.5726 139.778 83.7383 139.894 83.7653 139.924C84.0236 140.208 84.3851 140.363 84.5916 140.286C84.824 140.208 84.9531 140.311 84.9531 140.596C84.9531 140.854 85.1339 141.189 85.3405 141.344C85.5987 141.525 85.7794 142.222 85.8311 143.436C85.9602 145.863 87.7677 150.511 89.1621 152.035C90.0659 153.016 91.9509 153.429 94.0425 153.068C95.4111 152.861 95.7984 152.706 95.6693 152.396C95.5918 152.19 96.0824 152.448 96.7538 152.964C104.604 158.955 112.557 162.544 121.491 164.094C124.951 164.687 130.684 165.023 133.808 164.791H133.809H133.809H133.809H133.809H133.809H133.809H133.809C135.812 164.66 136.363 164.624 136.465 164.82C136.504 164.895 136.478 165.003 136.442 165.152C136.262 165.875 136.494 166.314 140.29 172.744C143.311 177.831 143.569 178.167 146.926 181.601C154.053 188.96 161.825 194.667 170.631 199.082C178.92 203.214 192.153 206.648 204.251 207.733C216.349 208.817 225.038 197.714 225.012 194.873C224.96 190.974 224.418 188.418 223.101 185.939C221.81 183.538 220.958 182.711 217.085 180.129C212.772 177.263 210.113 174.913 208.357 172.408C207.246 170.833 206.833 169.051 206.833 168.096C206.833 167.476 207.634 166.082 208.822 165.798C209.906 165.514 210.113 165.54 211.326 166.134C212.049 166.469 213.934 167.347 215.484 168.096C217.059 168.819 218.582 169.542 218.892 169.697C219.806 169.951 220.192 171.739 220.401 172.708C220.448 172.925 220.486 173.1 220.519 173.209C220.88 174.551 222.591 176.285 223.695 176.875C225.633 177.912 230.409 178.051 231.726 176.63C232.062 176.269 233.175 175.824 233.404 175.959C233.633 176.094 234.463 177.211 234.463 178.115C234.489 179.664 235.289 181.084 236.993 182.505C240.221 185.19 242.726 185.836 245.256 184.648C246.573 184.028 247.653 183.786 247.653 183.786C247.653 183.786 248.729 185.16 248.794 185.629C249.301 189.298 254.733 190.836 256.179 190.991C256.511 191.024 257.155 190.882 257.811 190.738C258.686 190.546 259.58 190.349 259.768 190.561C260.137 190.977 253.597 201.794 252.693 203.162C244.094 216.073 227.362 223.975 206.885 224.801C193.587 225.343 177.241 221.625 163.065 214.86C154.001 210.496 145.971 205.151 137.372 197.662C135.874 196.371 134.144 194.899 133.524 194.383C132.905 193.892 131.433 192.214 130.297 190.664C128.386 188.082 127.301 187.153 127.301 188.031C127.301 188.418 128.541 190.794 129.961 193.143C130.529 194.073 130.891 194.719 130.761 194.615C130.632 194.512 130.219 196.371 129.832 198.747C128.567 206.364 126.475 213.878 124.358 218.552C123.196 221.083 120.968 222.973 120.296 223.489C117.817 225.374 114.106 226.221 108.968 226.738C102.46 227.383 92.8805 225.937 85.5729 223.2C83.6362 222.477 78.6526 220.386 78.3169 220.153C78.2967 220.133 78.1823 219.39 78.0226 218.353C77.9776 218.061 77.929 217.745 77.8779 217.416C76.9483 211.038 75.6572 186.481 75.6572 175.12C75.6572 170.42 75.6056 169.387 75.2957 169.387C74.6501 169.387 74.3919 170.007 74.1079 172.228C73.4623 177.289 73.5914 203.705 74.2886 209.256L74.4436 210.522L73.5656 210.031C72.2229 209.256 67.1101 204.066 65.3284 201.665C63.82 199.612 62.9235 196.982 62.2528 195.015L62.2527 195.015C62.0967 194.557 61.953 194.136 61.8166 193.766C58.0724 183.385 59.3893 171.737 64.5537 161.253C68.9435 152.319 74.3403 147.361 82.2418 144.959C83.5329 144.572 84.6691 144.159 84.7982 144.056C85.2888 143.591 82.1385 143.823 80.4085 144.366C74.7793 146.096 68.8918 150.821 64.8894 156.863C59.2602 165.333 56.7296 177.831 58.5114 188.495C58.9245 191.026 60.603 196.5 61.0677 196.888C61.1089 196.929 61.3212 197.374 61.6423 198.048L61.6425 198.048C62.5306 199.911 64.2507 203.52 65.4833 205.151C66.981 207.191 71.4999 211.632 73.3849 213.001L74.5727 213.853L74.7534 215.944C75.0891 219.947 75.2182 220.308 77.0258 221.651C81.5446 225.085 90.4532 228.287 98.5097 229.423C102.254 229.94 110.388 229.759 113.487 229.088ZM200.765 204.841C185.762 203.524 167.635 196.371 154.518 185.319C148.992 180.645 141.813 171.556 138.973 166.521C138.379 165.488 137.94 164.997 137.424 164.868C136.881 164.713 137.346 164.558 139.567 164.197C148.94 162.596 158.055 158.697 165.415 153.145L166.499 152.345L166.809 153.093C167.506 154.772 170.192 156.476 172.18 156.476C172.981 156.476 175.666 155.262 177.293 154.152L178.403 153.403L179.307 154.307C180.133 155.133 180.288 155.185 181.837 155.185C183.619 155.185 185.762 154.384 186.95 153.248L187.596 152.654L189.429 153.868C190.41 154.565 193.148 156.089 195.497 157.302C199.009 159.11 202.728 161.202 206.265 163.371L206.833 163.732L206.291 164.455C205.723 165.23 204.665 166.702 204.665 168.948C204.665 171.479 207.296 176.025 212.333 179.148C216.291 181.601 223.101 186.426 222.843 193.479C222.812 194.331 221.862 196.449 220.596 198.359C219.77 199.573 217.472 201.381 215.38 202.439C211.817 204.221 205.542 205.254 200.765 204.841ZM63.0819 88.9256C63.7791 89.0805 64.2439 89.3129 64.1406 89.4162C63.8049 89.7519 62.0232 89.597 61.61 89.1838C60.9645 88.5641 61.1194 88.1251 62.0232 87.9443C62.488 87.8669 63.1852 87.4795 63.5725 87.0922C63.9598 86.7049 64.2955 86.5241 64.2955 86.6532C64.2955 86.9889 63.0044 88.1767 62.3588 88.435C61.9457 88.6157 62.0748 88.6932 63.0819 88.9256ZM73.359 89.3387C74.1079 88.9256 73.953 88.6415 73.075 88.7706C72.1971 88.8998 72.1454 88.7965 72.7135 87.9185C72.9459 87.5828 73.075 87.0922 73.0234 86.834C72.9459 86.4983 72.7651 86.6532 72.352 87.4795C72.0421 88.0735 71.6031 88.5641 71.3966 88.5641C70.751 88.5641 70.6994 89.0805 71.3191 89.3129C72.1196 89.6486 72.7393 89.6486 73.359 89.3387ZM64.4246 75.2399C63.8049 75.3432 61.8682 76.1178 60.164 76.97C58.4339 77.7963 56.962 78.4935 56.8588 78.4677C54.2249 78.1836 57.8916 73.7939 64.5537 69.3008C70.9318 64.9885 75.2441 62.7162 79.2465 61.5542C81.7512 60.8312 84.5658 60.7279 85.3663 61.3218C85.8053 61.6575 85.6503 61.6833 83.7395 61.7091C79.608 61.7091 74.8309 63.8265 67.0585 69.0168C63.0302 71.7023 58.3564 75.5498 58.3564 76.1695C58.3564 76.2986 59.1053 76.0404 60.0349 75.6272C62.0232 74.7235 64.0631 74.2587 64.9669 74.4652C65.9223 74.7235 65.7157 75.0591 64.4246 75.2399ZM74.4177 77.4606C76.845 76.97 76.9483 76.9442 76.9483 76.6859C76.9483 76.5568 76.0187 76.4277 74.8567 76.3761L72.7651 76.2986L74.7018 74.1037C75.7605 72.8901 77 71.6765 77.4389 71.3924C78.3943 70.7727 78.446 70.3337 77.6713 70.0755L77.0774 69.8947L77.723 69.6623C78.0845 69.5332 78.7558 69.4816 79.2206 69.559C79.9178 69.6623 80.0728 69.6107 79.9953 69.2492C79.9178 68.8877 79.6338 68.8102 78.3685 68.836C74.676 68.8877 73.1008 69.8689 75.9929 70.3337C76.7934 70.4628 77.4647 70.6694 77.4647 70.7985C77.4647 70.9018 77.3356 71.0051 77.1807 71.0051C76.6901 71.0051 72.5327 75.2141 72.0163 76.247C71.2158 77.7705 71.6548 78.0029 74.4177 77.4606ZM91.4603 67.4416C90.7115 67.4933 90.5307 67.6224 90.5824 67.9839L90.5903 68.0365C90.6193 68.2275 90.636 68.3372 90.5932 68.3706C90.5354 68.4155 90.3692 68.3213 89.9787 68.0998L89.911 68.0614C89.4204 67.8031 89.3687 67.674 89.6528 67.4675C89.8335 67.3125 90.3241 67.0801 90.7115 67.0027L91.4345 66.8219L90.8922 66.2538C90.6082 65.9181 90.4532 65.6083 90.5307 65.505C90.7373 65.2984 93.2678 65.5825 93.6294 65.8665C93.7843 65.9956 94.0167 65.9698 94.1716 65.8148C94.5331 65.4533 95.0237 65.7374 95.0237 66.3055C95.0237 66.6153 94.9463 66.6412 94.7139 66.4088C94.5073 66.2022 94.3265 66.2022 94.0942 66.3829C93.8876 66.5637 93.7326 66.5637 93.6035 66.3571C93.5261 66.228 93.0354 66.0989 92.519 66.0989C92.0426 66.0989 91.8173 66.0989 91.7713 66.1897C91.7301 66.2711 91.833 66.4256 92.0284 66.7186C92.4403 67.3622 92.4159 67.3642 91.4691 67.4409L91.4603 67.4416ZM87.5354 60.573C87.5354 60.2373 87.2255 59.6434 86.8382 59.256L86.1151 58.533L89.9884 58.688C92.1317 58.7912 94.559 59.0236 95.4111 59.256C96.2632 59.4626 97.2444 59.6176 97.606 59.6176C98.1482 59.6176 98.0449 59.5143 97.0379 58.972C95.282 58.0682 93.0354 57.6293 88.7232 57.3194C83.5588 56.9579 80.9507 57.4485 81.4413 58.7396C81.5188 58.9978 81.932 59.1269 82.5517 59.1269C83.817 59.1269 85.8827 59.8758 86.5799 60.573C87.3288 61.3218 87.5354 61.3218 87.5354 60.573ZM74.9342 128.95C77.0258 131.635 79.7887 134.682 81.0798 135.715C81.8545 136.335 82.5259 136.851 82.5775 136.851C82.6033 136.851 82.0353 135.663 81.3122 134.217C78.3943 128.407 76.6901 122.623 75.8896 115.961C75.7089 114.489 75.4248 113.25 75.1149 112.734C74.4952 111.701 74.4952 110.358 75.1408 109.093C75.4765 108.421 75.6572 107.569 75.6572 106.64V105.219L74.4177 106.51C73.2041 107.776 72.0421 108.292 72.0421 107.517C72.0421 106.949 73.9529 104.212 74.96 103.36C75.7605 102.689 75.8638 102.456 76.122 100.442C76.3028 99.2286 76.7159 97.0853 77.0516 95.6651C77.4131 94.2449 77.6197 93.0313 77.568 92.9796C77.3873 92.7989 71.3191 99.7682 70.4928 101.992C70.3114 102.48 69.8214 103.334 69.4341 103.851L68.7627 104.713C68.7627 104.713 68.9713 105.92 69.2017 107.437C69.4345 108.969 69.5437 110.023 69.641 110.961C69.7712 112.217 69.8799 113.266 70.2346 114.98C70.6477 117.097 71.0609 118.931 71.1642 119.06C71.2416 119.215 71.5773 120.403 71.913 121.72C72.636 124.637 73.8497 127.53 74.9342 128.95ZM179.72 153.377L179.178 152.835C179.178 152.835 188.178 141.4 189.791 137.187C191.021 133.972 191.746 133.06 192.723 133.06C193.269 133.06 193.716 133.185 193.922 133.494C194.284 134.037 194.632 134.708 194.167 137.006C193.393 140.725 192.205 143.178 188.641 148.471C187.815 149.685 186.756 151.028 186.292 151.492C185.207 152.499 182.767 153.532 181.347 153.765C180.443 153.894 180.185 153.842 179.72 153.377Z" fill="#203B54"/>
<path d="M251.221 178.638C254.434 169.885 253.948 168.02 253.39 167.838C253.39 167.838 252.164 168.535 251.621 170.007C250.614 172.77 247.167 180 245.876 181.291C244.353 182.815 244.353 182.815 242.803 182.815C241.254 182.815 236.786 180.481 236.177 178.182C235.204 174.502 239.395 161.718 239.498 160.995L238.801 160.504C238.336 160.943 232.29 179.277 224.341 174.5C223.43 173.953 221.5 171.376 221.345 170.007C220.485 166.03 224.433 152.125 225.104 149.269C225.705 146.713 228.834 144.34 232.681 144.34C238.594 144.34 237.8 149.509 240.449 151.33C241.622 152.137 243.551 150.674 244.146 150.563C247.477 149.943 248.754 150.665 251.195 152.603C253.08 154.099 254.475 157.06 256.01 158.103C256.863 158.683 257.768 157.89 258.064 157.741C259.279 157.132 261.886 157.587 262.609 158.103C263.669 158.565 266.266 161.062 266.676 162.514C268.536 169.096 262.664 183.687 260.447 186.424C256.777 190.955 248.009 187.391 251.221 178.638Z" fill="white"/>
<path fill-rule="evenodd" clip-rule="evenodd" d="M102.77 154.654C109.846 159.122 117.141 162.04 125.456 162.84C132.015 163.46 140.858 162.608 147.21 160.542C152.555 158.812 159.786 154.019 164.614 149.965C173.988 142.115 179.901 129.854 182.483 116.839C182.845 115.006 183.396 110.397 183.37 105.827C183.37 100.507 181.029 85.9713 173.936 77.5897C159.307 60.3028 135.259 52.5155 115.048 59.1692C107.758 61.5695 99.9953 65.9181 94.1337 71.599C86.7486 78.8033 81.3001 88.6157 79.1311 98.6347C76.8588 109.222 79.8147 121.875 84.9532 132.255C89.0589 140.518 95.8243 150.239 102.77 154.654ZM171.715 123.45C166.861 138.039 154.208 148.936 138.302 152.241C135.874 152.732 134.196 152.913 130.787 152.964C128.386 153.042 125.984 153.016 125.494 152.964C114.365 151.622 105.895 147.516 98.0967 139.718C94.6882 136.283 93.2421 134.424 91.1247 130.757C87.7937 124.947 86.0119 119.008 85.4697 111.856C83.6105 87.3504 101.144 66.9252 125.83 64.8078C135.513 63.9815 146.255 66.951 154.415 72.7352C157.436 74.8784 162.91 80.301 164.614 82.8316C165.311 83.8386 172.077 93.7285 173.265 99.4093C174.788 106.794 174.194 116.039 171.715 123.45Z" fill="white"/>
<path fill-rule="evenodd" clip-rule="evenodd" d="M183.379 105.827C183.379 123.159 175.181 142.108 164.6 150.2C159.552 154.061 152.955 158.736 147.21 160.542C138.791 163.189 125.456 162.84 125.456 162.84C125.456 162.84 139.061 161.022 144.102 158.993C158.559 153.174 166.451 144.243 171.325 135.674C180.944 118.758 183.379 105.406 183.379 105.827Z" fill="#E7EAEE"/>
<path fill-rule="evenodd" clip-rule="evenodd" d="M125.752 149.866C118.857 148.988 112.015 146.535 106.489 142.894C103.209 140.751 98.2514 135.715 95.8499 132.126C92.4156 126.962 90.1433 121.436 89.0329 115.497C88.2324 111.184 88.2583 104.548 89.0587 100.701C89.885 96.7757 90.9438 93.7803 92.8288 89.9845C95.0236 85.5947 97.3476 82.367 100.834 78.881C106.773 72.9419 113.667 69.1719 121.879 67.3644C124.538 66.7963 134.17 66.3315 134.506 66.7704C134.583 66.8996 135.099 67.2352 135.642 67.5193C136.184 67.8291 137.63 68.9137 138.818 69.9724C140.6 71.5217 141.4 72.5029 142.949 74.9302C144.008 76.5828 144.86 78.0805 144.86 78.2096C144.86 78.4937 145.686 79.0101 146.151 79.0101C146.797 79.0101 147.236 77.0734 147.365 73.6649C147.442 71.7799 147.597 70.2306 147.701 70.2306C148.062 70.2306 152.039 72.4255 153.898 73.6649C157.539 76.0922 161.18 79.5007 163.865 83.0642C165.079 84.6651 165.26 85.0783 165.26 86.0595C165.26 86.9633 165.518 87.6605 166.318 89.0549C168.332 92.5667 169.908 96.9822 170.863 101.863C171.483 105.142 171.483 111.339 170.837 114.774C169.081 124.225 163.865 133.624 157.074 139.589C151.316 144.624 145.196 147.723 137.966 149.246C135.487 149.788 128.05 150.15 125.752 149.866ZM107.289 132.204C107.522 131.945 107.676 131.558 107.599 131.377C107.576 131.323 107.252 131.171 106.779 130.948L106.779 130.948C105.676 130.43 103.758 129.528 102.927 128.588C99.6214 124.818 98.4078 122.004 97.6589 116.194C96.9359 110.539 97.5433 106.716 98.8468 100.572C99.4826 97.5742 101.173 95.0984 102.224 93.5581C102.939 92.5108 103.359 91.8959 102.951 91.8436C101.944 91.6887 101.789 91.7662 100.73 92.7732C98.458 94.9423 97.4251 96.6724 96.3406 100.003C94.6621 105.219 94.3378 119.316 97.6589 125.671C100.98 132.025 106.695 132.875 107.289 132.204ZM144.008 110.513C143.57 114.524 141.71 120.325 139.541 122.856C138.534 124.044 134.837 126.084 131.717 125.671C128.703 125.271 126.346 123.863 124.332 120.842C122.602 118.234 121.708 115.068 121.104 111.081C120.061 104.196 124.616 96.1818 126.578 94.1935C128.566 92.1535 129.987 91.4305 131.794 91.4047C133.55 91.4047 134.686 91.792 136.468 93.0573C139.722 95.3296 144.86 102.718 144.008 110.513ZM109.2 89.1582C109.716 88.5643 109.794 88.2802 109.639 87.1699C109.536 86.137 109.329 85.7238 108.787 85.2848C107.831 84.5102 106.644 84.5102 105.766 85.3365C105.146 85.9304 105.068 86.137 105.146 87.5572C105.223 89.0807 105.275 89.184 106.127 89.6488C107.263 90.2685 108.374 90.0878 109.2 89.1582ZM125.313 73.226C120.665 76.557 118.651 77.9256 116.559 79.2167C114.907 80.2496 114.39 80.2754 114.39 79.3458C114.39 78.8552 114.752 78.3129 115.681 77.4608L116.972 76.273L114.468 75.9373C111.653 75.5758 108.916 74.8011 108.322 74.2072C107.341 73.2001 108.193 72.9677 110.982 73.4842C112.221 73.6908 114.623 73.949 116.327 74.0006L119.425 74.1297L121.672 72.5029C126.604 68.9395 131.717 66.9254 134.17 67.5451C135.693 67.9066 135.513 68.3198 133.783 68.5263C131.794 68.7587 130.581 69.4301 125.313 73.226Z" fill="white"/>
<path d="M131.949 122.133C131.949 122.004 132.104 121.875 132.311 121.875C132.517 121.875 132.776 122.004 132.853 122.133C132.93 122.288 132.776 122.391 132.491 122.391C132.182 122.391 131.949 122.288 131.949 122.133Z" fill="white"/>
<path d="M133.499 121.901C133.499 121.617 134.144 121.358 134.867 121.358C135.435 121.384 135.435 121.384 134.945 121.746C134.376 122.185 133.499 122.262 133.499 121.901Z" fill="white"/>
<path d="M129.496 121.229C129.419 121.023 129.315 120.661 129.238 120.455C129.16 120.196 129.289 120.067 129.625 120.067C129.909 120.067 130.142 120.222 130.142 120.429C130.142 120.635 130.219 120.971 130.297 121.204C130.4 121.488 130.322 121.617 130.038 121.617C129.806 121.617 129.548 121.436 129.496 121.229Z" fill="white"/>
<path d="M130.865 120.584C130.736 119.809 131.02 119.551 131.949 119.551C132.233 119.551 132.466 119.809 132.569 120.248C132.776 120.997 132.44 121.358 131.536 121.358C131.123 121.358 130.942 121.178 130.865 120.584Z" fill="white"/>
<path d="M128.231 120.713C127.74 120.325 127.74 120.325 128.283 120.325C128.618 120.325 128.851 120.48 128.851 120.713C128.851 121.177 128.851 121.177 128.231 120.713Z" fill="white"/>
<path d="M133.421 120.687C133.086 120.351 133.24 119.344 133.654 119.189C134.402 118.905 134.738 119.035 134.893 119.706C134.996 120.093 135.048 120.429 134.996 120.455C134.79 120.687 133.576 120.842 133.421 120.687Z" fill="white"/>
<path d="M135.719 120.145C135.642 120.067 135.564 119.731 135.564 119.422C135.564 118.983 135.771 118.802 136.391 118.673C136.933 118.569 137.269 118.621 137.424 118.828C137.682 119.241 137.682 119.757 137.449 119.886C136.985 120.145 135.9 120.3 135.719 120.145Z" fill="white"/>
<path d="M127.043 119.344C127.043 119.034 127.275 118.776 127.611 118.699C128.282 118.518 128.257 118.492 128.386 119.163C128.437 119.551 128.308 119.706 127.766 119.757C127.198 119.835 127.043 119.731 127.043 119.344Z" fill="white"/>
<path d="M129.006 119.37C128.644 118.983 128.876 118.26 129.367 118.26C129.703 118.26 129.884 118.441 129.884 118.75C129.884 119.241 129.29 119.654 129.006 119.37Z" fill="white"/>
<path d="M130.555 118.595C130.348 118.105 130.787 117.743 131.639 117.743C132.027 117.743 132.208 117.898 132.208 118.234C132.208 118.518 131.975 118.776 131.639 118.879C130.787 119.086 130.736 119.086 130.555 118.595Z" fill="white"/>
<path d="M138.017 118.518C138.095 118.389 138.224 118.26 138.301 118.26C138.379 118.26 138.353 118.389 138.276 118.518C138.198 118.673 138.069 118.776 137.992 118.776C137.914 118.776 137.94 118.673 138.017 118.518Z" fill="white"/>
<path d="M132.879 118.078C132.672 117.562 132.93 117.304 133.757 117.175C134.222 117.123 134.428 117.226 134.48 117.588C134.661 118.44 133.189 118.905 132.879 118.078Z" fill="white"/>
<path d="M126.681 117.64C126.449 116.787 126.501 116.71 127.172 116.71C127.534 116.71 127.818 116.813 127.818 116.942C127.818 117.071 127.895 117.356 127.973 117.562C128.05 117.82 127.895 117.975 127.456 118.053C126.966 118.156 126.785 118.053 126.681 117.64Z" fill="white"/>
<path d="M135.306 117.356C135.306 116.891 135.487 116.684 135.978 116.555C136.701 116.375 137.114 116.736 137.114 117.562C137.114 117.898 136.907 118.001 136.21 118.001C135.409 118.001 135.306 117.924 135.306 117.356Z" fill="white"/>
<path d="M125.907 117.356C125.83 117.15 125.881 116.969 126.01 116.969C126.165 116.969 126.269 117.15 126.269 117.356C126.269 117.563 126.217 117.743 126.165 117.743C126.114 117.743 126.01 117.563 125.907 117.356Z" fill="white"/>
<path d="M128.515 117.563C128.153 117.227 128.36 116.504 128.825 116.375C129.109 116.297 129.393 116.323 129.47 116.401C129.78 116.685 129.599 117.434 129.212 117.589C128.721 117.769 128.721 117.769 128.515 117.563Z" fill="white"/>
<path d="M137.733 117.381C137.449 116.632 137.759 116.064 138.482 115.987C139.025 115.909 139.179 116.012 139.179 116.426C139.179 117.278 138.895 117.743 138.379 117.743C138.095 117.743 137.811 117.588 137.733 117.381Z" fill="white"/>
<path d="M130.322 117.046C130.013 116.762 130.116 116.245 130.555 116.09C131.045 115.909 132.078 116.426 131.794 116.71C131.433 117.02 130.503 117.252 130.322 117.046Z" fill="white"/>
<path d="M132.569 116.4C132.337 116.039 133.163 115.419 133.834 115.419C134.144 115.419 134.273 115.574 134.222 115.858C134.118 116.374 132.801 116.788 132.569 116.4Z" fill="white"/>
<path d="M125.494 116.22C125.494 116.091 125.416 115.807 125.339 115.574C125.261 115.342 125.287 115.161 125.442 115.161C125.778 115.161 126.036 116.142 125.726 116.349C125.597 116.426 125.494 116.375 125.494 116.22Z" fill="white"/>
<path d="M126.191 115.626C126.036 115.058 126.346 114.645 126.94 114.645C127.276 114.645 127.611 115.652 127.405 115.987C127.121 116.426 126.32 116.168 126.191 115.626Z" fill="white"/>
<path d="M127.999 115.755C127.611 115.367 127.844 114.438 128.36 114.309C128.747 114.205 128.954 114.335 129.161 114.799C129.315 115.135 129.393 115.471 129.341 115.522C129.083 115.755 128.153 115.936 127.999 115.755Z" fill="white"/>
<path d="M134.97 115.755C134.635 115.419 134.79 115.212 135.564 114.928C136.21 114.722 136.391 114.748 136.52 115.058C136.752 115.677 135.461 116.271 134.97 115.755Z" fill="white"/>
<path d="M137.243 115.16C136.985 114.747 137.346 114.386 138.018 114.386C138.818 114.386 139.05 115.057 138.327 115.264C137.553 115.47 137.424 115.444 137.243 115.16Z" fill="white"/>
<path d="M139.438 114.541C139.438 114.153 139.903 113.74 140.109 113.947C140.29 114.127 139.928 114.902 139.67 114.902C139.541 114.902 139.438 114.747 139.438 114.541Z" fill="white"/>
<path d="M125.158 114.205C125.055 114.128 124.977 113.792 125.003 113.508C125.003 113.018 125.029 113.018 125.261 113.586C125.519 114.205 125.468 114.515 125.158 114.205Z" fill="white"/>
<path d="M125.649 113.818C125.416 112.914 125.442 112.837 126.113 112.837C126.862 112.837 127.327 113.792 126.759 114.154C126.165 114.515 125.829 114.412 125.649 113.818Z" fill="white"/>
<path d="M134.531 114.334C134.531 114.257 134.661 113.843 134.816 113.379C135.177 112.346 135.978 112.294 136.158 113.301C136.236 113.689 136.262 114.024 136.236 114.05C136.107 114.205 134.531 114.437 134.531 114.334Z" fill="white"/>
<path d="M127.482 113.688C127.379 113.611 127.301 113.301 127.301 113.017C127.301 112.604 127.379 112.578 127.689 112.836C127.895 113.017 128.076 113.327 128.076 113.508C128.076 113.895 127.766 113.998 127.482 113.688Z" fill="white"/>
<path d="M136.778 113.173C136.623 112.372 136.959 112.011 137.759 112.114C138.147 112.166 138.276 112.398 138.276 112.966C138.276 113.612 138.172 113.767 137.604 113.818C137.036 113.896 136.907 113.767 136.778 113.173Z" fill="white"/>
<path d="M139.309 113.276C138.973 112.243 139.076 111.933 139.773 111.855C140.393 111.778 140.471 111.855 140.471 112.527C140.471 113.095 140.316 113.327 139.928 113.431C139.644 113.508 139.36 113.431 139.309 113.276Z" fill="white"/>
<path d="M124.771 111.804C124.771 111.313 124.822 111.107 124.9 111.365C124.952 111.597 124.952 112.01 124.9 112.269C124.822 112.501 124.771 112.294 124.771 111.804Z" fill="white"/>
<path d="M125.416 112.14C125.081 111.83 125.236 110.823 125.649 110.668C126.243 110.435 126.527 110.719 126.527 111.571C126.527 112.114 126.398 112.32 126.062 112.32C125.804 112.32 125.494 112.243 125.416 112.14Z" fill="white"/>
<path d="M126.966 111.442C126.862 111.055 126.811 110.642 126.914 110.564C127.172 110.306 127.327 110.719 127.25 111.468L127.172 112.191L126.966 111.442Z" fill="white"/>
<path d="M135.306 111.261C135.306 110.977 135.435 110.822 135.564 110.9C135.719 110.977 135.823 111.235 135.823 111.442C135.823 111.649 135.719 111.804 135.564 111.804C135.435 111.804 135.306 111.571 135.306 111.261Z" fill="white"/>
<path d="M136.468 111.598C136.107 111.21 136.391 110.513 136.985 110.358C137.734 110.178 137.759 110.178 137.992 110.926C138.147 111.391 138.043 111.494 137.372 111.598C136.959 111.675 136.546 111.649 136.468 111.598Z" fill="white"/>
<path d="M138.844 111.107C138.56 110.848 138.637 109.996 138.921 109.996C139.076 109.996 139.18 109.893 139.18 109.738C139.18 109.609 139.025 109.48 138.818 109.48C138.379 109.48 138.018 108.214 138.379 107.853C138.844 107.388 139.36 107.879 139.67 109.144C139.851 109.815 140.032 110.59 140.109 110.848C140.212 111.184 140.109 111.287 139.619 111.287C139.283 111.287 138.921 111.21 138.844 111.107Z" fill="white"/>
<path d="M140.238 109.738C140.057 108.963 139.593 107.414 139.257 106.278C138.74 104.625 138.689 104.212 138.973 104.031C139.154 103.902 139.386 103.799 139.463 103.799C139.747 103.799 140.78 109.092 140.677 110.125L140.6 111.158L140.238 109.738Z" fill="white"/>
<path d="M124.512 109.609C124.512 109.196 124.564 109.041 124.642 109.299C124.693 109.531 124.693 109.893 124.642 110.074C124.564 110.229 124.512 110.048 124.512 109.609Z" fill="white"/>
<path d="M125.029 109.558C125.132 108.654 125.881 108.447 126.088 109.274C126.269 109.945 126.32 109.868 125.545 110.126C125.003 110.281 124.952 110.229 125.029 109.558Z" fill="white"/>
<path d="M135.926 109.325C135.719 108.576 136.158 108.137 136.985 108.241C137.604 108.318 137.837 109.428 137.32 109.764C136.675 110.177 136.081 109.996 135.926 109.325Z" fill="white"/>
<path d="M126.527 109.119C126.527 108.68 126.656 108.447 126.94 108.447C127.198 108.447 127.301 108.628 127.25 109.015C127.121 109.842 126.527 109.919 126.527 109.119Z" fill="white"/>
<path d="M124.228 108.034C124.228 107.75 124.306 107.673 124.383 107.879C124.461 108.06 124.435 108.293 124.358 108.37C124.28 108.473 124.203 108.318 124.228 108.034Z" fill="white"/>
<path d="M124.719 107.956C124.719 107.569 124.874 107.414 125.261 107.414C125.623 107.414 125.752 107.543 125.7 107.853C125.571 108.524 124.719 108.602 124.719 107.956Z" fill="white"/>
<path d="M126.139 107.724C125.959 107.259 125.959 107.259 126.733 107.052C127.198 106.897 127.301 106.975 127.301 107.362C127.301 107.982 126.372 108.292 126.139 107.724Z" fill="white"/>
<path d="M135.487 107.362C135.306 106.717 135.642 106.381 136.546 106.381C136.985 106.381 137.114 106.536 137.114 107.026C137.114 107.414 136.959 107.672 136.752 107.672C136.546 107.672 136.21 107.749 136.003 107.827C135.771 107.904 135.59 107.749 135.487 107.362Z" fill="white"/>
<path d="M137.733 106.769C137.527 106.253 137.837 105.865 138.431 105.865C138.792 105.865 138.921 106.046 138.921 106.511C138.921 106.976 138.792 107.156 138.405 107.156C138.121 107.156 137.811 106.976 137.733 106.769Z" fill="white"/>
<path d="M124.461 106.407C124.461 105.865 125.055 105.245 125.313 105.529C125.416 105.607 125.494 105.968 125.494 106.304C125.494 106.717 125.339 106.898 124.977 106.898C124.642 106.898 124.461 106.717 124.461 106.407Z" fill="white"/>
<path d="M125.881 106.098C125.675 105.452 125.907 105.168 126.785 105.039C127.585 104.936 127.844 105.788 127.146 106.304C126.475 106.795 126.062 106.717 125.881 106.098Z" fill="white"/>
<path d="M135.229 105.942C135.048 105.787 134.97 104.832 135.125 104.832C135.151 104.832 135.538 104.728 136.003 104.599C136.778 104.367 136.83 104.393 136.804 105.09C136.778 105.606 136.623 105.864 136.236 105.968C135.538 106.149 135.435 106.149 135.229 105.942Z" fill="white"/>
<path d="M134.273 105.348C134.273 105.168 134.351 105.09 134.454 105.168C134.531 105.271 134.531 105.426 134.454 105.529C134.351 105.607 134.273 105.529 134.273 105.348Z" fill="white"/>
<path d="M137.165 104.935C137.243 104.496 138.043 103.851 138.224 104.057C138.301 104.135 138.431 104.445 138.508 104.78C138.689 105.297 138.611 105.348 137.888 105.348C137.269 105.348 137.088 105.245 137.165 104.935Z" fill="white"/>
<path d="M124.719 104.909C124.719 104.78 124.848 104.522 124.977 104.316C125.184 104.006 125.235 104.032 125.235 104.522C125.235 104.832 125.132 105.09 124.977 105.09C124.848 105.09 124.719 105.013 124.719 104.909Z" fill="white"/>
<path d="M125.494 104.341C125.494 103.618 126.036 103.386 126.449 103.928C126.707 104.315 126.707 104.445 126.449 104.625C125.907 104.961 125.494 104.858 125.494 104.341Z" fill="white"/>
<path d="M133.344 104.006C132.879 103.489 132.879 103.463 133.318 103.618C133.576 103.722 133.912 103.799 134.041 103.799C134.17 103.799 134.273 103.98 134.273 104.186C134.273 104.729 133.912 104.677 133.344 104.006Z" fill="white"/>
<path d="M127.792 103.98C126.682 103.128 126.527 101.217 127.56 101.217C128.257 101.217 128.902 102.301 128.799 103.308C128.722 104.238 128.412 104.445 127.792 103.98Z" fill="white"/>
<path d="M134.867 104.135C134.97 104.058 135.125 104.058 135.229 104.135C135.306 104.239 135.229 104.316 135.048 104.316C134.867 104.316 134.79 104.239 134.867 104.135Z" fill="white"/>
<path d="M138.766 103.128C138.844 102.895 138.921 102.663 138.921 102.611C138.921 102.559 139.05 102.508 139.179 102.508C139.334 102.508 139.438 102.74 139.438 103.024C139.438 103.334 139.257 103.541 139.025 103.541C138.741 103.541 138.663 103.412 138.766 103.128Z" fill="white"/>
<path d="M125.236 103.05C125.236 102.456 125.778 101.475 126.088 101.475C126.63 101.475 126.243 103.127 125.675 103.231C125.442 103.282 125.236 103.205 125.236 103.05Z" fill="white"/>
<path d="M131.045 102.766L130.271 102.586L130.968 102.405C131.691 102.198 132.207 102.353 132.207 102.792C132.207 103.05 132.182 103.05 131.045 102.766Z" fill="white"/>
<path d="M130.142 101.527C130.142 100.468 130.736 100.313 131.278 101.243C131.639 101.862 131.665 101.991 131.329 101.991C131.123 101.991 130.787 102.069 130.555 102.146C130.245 102.275 130.142 102.12 130.142 101.527Z" fill="white"/>
<path d="M134.635 101.888C133.473 101.372 132.724 100.003 132.724 98.3766C132.724 97.2146 132.827 96.9305 133.524 96.285C133.963 95.8718 134.402 95.5361 134.531 95.5361C135.1 95.5361 137.191 97.5244 137.888 98.7639L138.689 100.184L137.837 101.088C136.855 102.121 135.771 102.405 134.635 101.888Z" fill="white"/>
<path d="M129.238 101.217C129.161 101.088 129.212 100.959 129.341 100.959C129.496 100.959 129.625 101.088 129.625 101.217C129.625 101.372 129.574 101.475 129.522 101.475C129.445 101.475 129.316 101.372 129.238 101.217Z" fill="white"/>
<path d="M125.855 100.803C125.933 100.571 126.01 100.339 126.01 100.287C126.01 100.235 126.243 100.184 126.527 100.184C127.172 100.184 127.198 100.597 126.553 100.958C125.855 101.32 125.675 101.294 125.855 100.803Z" fill="white"/>
<path d="M127.895 100.494C127.301 100.416 127.121 100.081 127.508 99.8483C127.611 99.7708 128.076 99.6417 128.541 99.5384C129.238 99.3835 129.367 99.4351 129.367 99.8741C129.367 100.416 128.825 100.649 127.895 100.494Z" fill="white"/>
<path d="M129.884 99.6157C129.884 99.3058 129.909 99.1251 129.961 99.1767C129.987 99.2284 130.193 99.4866 130.374 99.7448C130.684 100.106 130.658 100.184 130.297 100.184C130.038 100.184 129.884 99.9772 129.884 99.6157Z" fill="white"/>
<path d="M126.268 99.435C126.268 99.28 126.397 99.0993 126.527 99.0218C126.681 98.9443 126.785 99.0476 126.785 99.2542C126.785 99.4866 126.681 99.6674 126.527 99.6674C126.397 99.6674 126.268 99.5641 126.268 99.435Z" fill="white"/>
<path d="M127.224 99.0482C127.017 98.5318 128.851 97.9637 129.161 98.4543C129.393 98.8675 129.161 99.0482 128.179 99.2548C127.585 99.3839 127.327 99.3323 127.224 99.0482Z" fill="white"/>
<path d="M129.651 98.2218C129.651 97.9378 129.729 97.8603 129.806 98.0669C129.883 98.2477 129.858 98.4801 129.78 98.5575C129.703 98.6608 129.625 98.5059 129.651 98.2218Z" fill="white"/>
<path d="M127.456 97.8082C127.766 97.2401 128.67 96.3105 128.902 96.3105C129.161 96.3105 129.186 97.5242 128.928 97.6791C128.799 97.7308 128.386 97.8599 127.999 97.9632C127.43 98.0923 127.301 98.0664 127.456 97.8082Z" fill="white"/>
<path d="M129.522 97.2145C129.238 96.4399 129.367 96.1042 129.987 96.0009C130.632 95.8718 130.632 95.8718 130.219 96.6723C129.703 97.7051 129.728 97.7051 129.522 97.2145Z" fill="white"/>
<path d="M129.367 95.6654C129.367 95.6138 129.884 95.2523 130.529 94.8908C131.304 94.426 131.846 94.271 132.233 94.3743C132.698 94.5293 132.569 94.6326 131.433 95.1748C130.168 95.7429 129.367 95.9495 129.367 95.6654Z" fill="white"/>
<path d="M143.698 72.7865C143.001 71.7794 141.529 70.1526 140.471 69.1714C139.412 68.1901 138.715 67.3896 138.921 67.3896C139.489 67.3896 143.827 68.5775 144.912 69.0423C145.816 69.4296 145.842 69.4812 145.609 70.2817C145.48 70.7465 145.377 71.9085 145.377 72.8639C145.377 73.8452 145.299 74.6198 145.196 74.6198C145.067 74.6198 144.421 73.7935 143.698 72.7865Z" fill="white"/>
<path d="M91.1505 151.002C90.0918 150.459 89.8594 150.149 88.5167 147.49C86.58 143.72 86.5284 142.842 88.3618 144.985C89.0848 145.837 90.7632 147.593 92.0801 148.884C94.3267 151.053 94.43 151.208 93.6811 151.105C93.1388 151.027 92.9323 151.079 93.0614 151.286C93.3712 151.75 92.39 151.621 91.1505 151.002Z" fill="white"/>
<path fill-rule="evenodd" clip-rule="evenodd" d="M134.425 198.048C134.211 197.539 134.45 196.952 134.959 196.738L135.515 196.502C140.924 194.188 144.029 192.797 146.138 190.59C148.248 188.382 148.5 185.14 148.897 183.167C149.005 182.625 150.231 183.576 150.773 183.685C151.314 183.794 151.665 184.321 151.556 184.862C151.08 187.235 149.797 189.496 147.731 191.643C145.672 193.783 141.686 196.076 135.735 198.581C135.226 198.796 134.64 198.557 134.425 198.048Z" fill="#203B54"/>
<path fill-rule="evenodd" clip-rule="evenodd" d="M158.885 95.0169C159.36 94.7344 159.974 94.8901 160.256 95.3646C163.085 100.116 164.6 105.548 164.6 111.199C164.6 128.32 150.721 142.199 133.6 142.199C129.051 142.199 124.638 141.218 120.597 139.349C120.096 139.117 118.203 137.27 120.11 138.021C122.017 138.772 129.395 140.458 133.653 140.458C149.669 140.458 161 127.216 161 111.199C161 105.911 158.885 101.216 158.538 96.3876C158.497 95.8279 158.411 95.2994 158.885 95.0169Z" fill="#203B54"/>
<path fill-rule="evenodd" clip-rule="evenodd" d="M59.8476 170.702C60.2011 170.278 60.8316 169.42 61.256 169.774C62.9969 171.224 64.8546 172.904 66.8417 173.228C68.9096 173.566 71.3628 173.566 74.1981 173.222C74.7464 173.156 75.2446 173.547 75.311 174.095C75.3774 174.643 74.9867 175.142 74.4384 175.208C71.4275 175.572 68.789 175.572 66.5196 175.202C64.1697 174.819 61.9842 173.783 59.976 172.111C59.5516 171.757 59.4942 171.127 59.8476 170.702Z" fill="#203B54"/>
<path d="M81.0798 135.716C79.7887 134.683 77.0258 131.636 74.9342 128.95C73.8496 127.53 72.636 124.638 71.913 121.72C71.5773 120.403 71.2416 119.215 71.1641 119.06C71.0609 118.931 70.6477 117.098 70.2346 114.98C69.6148 111.985 69.7459 111.02 69.2017 107.437C68.9712 105.92 68.7627 104.713 68.7627 104.713L69.4341 103.851C69.8214 103.335 70.3114 102.48 70.4928 101.992C71.3191 99.7685 77.3873 92.7993 77.568 92.98C77.6197 93.0317 77.4131 94.2453 77.0516 95.6655C76.7159 97.0857 76.3027 99.2289 76.122 100.443C75.8638 102.457 75.7605 102.689 74.96 103.36C73.9529 104.213 72.0421 106.95 72.0421 107.518C72.0421 108.292 73.2041 107.776 74.4177 106.511L75.6572 105.22V106.64C75.6572 107.569 75.4764 108.422 75.1407 109.093C74.4952 110.358 74.4952 111.701 75.1149 112.734C75.4248 113.25 75.7088 114.49 75.8896 115.962C76.6901 122.624 78.3943 128.408 81.3122 134.218C82.0352 135.664 82.6033 136.852 82.5775 136.852C82.5258 136.852 81.8545 136.335 81.0798 135.716Z" fill="white"/>
<path fill-rule="evenodd" clip-rule="evenodd" d="M188.525 151.648L190.385 152.474C190.77 152.652 195.023 154.695 200.131 157.15C208.368 161.108 218.828 166.134 218.892 166.134C218.995 166.134 219.48 165.013 219.589 163.707C219.848 160.892 220.803 157.07 221.913 154.411C222.43 153.223 222.843 151.738 222.843 151.609C222.843 151.55 222.423 151.381 221.736 151.104C220.918 150.774 219.721 150.291 218.402 149.659C211.894 146.535 199.164 140.157 197.589 139.202C196.04 138.298 195.73 138.22 195.73 138.814C195.73 139.589 194.155 143.178 192.941 145.115C192.295 146.173 191.03 148.084 190.126 149.35L188.525 151.648ZM218.453 161.486C219.194 161.915 217.911 162.545 217.601 162.648C215.777 162.803 213.629 162.46 211.869 161.434C210.948 160.782 203.703 156.756 198.896 154.086C196.699 152.865 195.011 151.928 194.671 151.725C193.587 151.08 192.554 150.382 192.373 150.176C191.831 149.479 192.347 149.169 193.871 149.298C194.786 149.376 216.854 160.559 218.453 161.486Z" fill="white"/>
<path d="M169.985 153.972C169.314 153.739 168.591 153.223 168.126 152.629L167.351 151.673L170.088 148.962C174.297 144.831 177.396 140.315 180.185 135.28C181.114 133.602 183.877 126.833 184.213 126.084C184.73 124.999 185.117 124.586 186.227 123.966C187.544 123.192 189.042 122.934 189.687 123.372C190.927 124.199 190.927 126.807 189.687 131.3C188.319 136.232 186.485 139.769 182.69 144.856C182.096 145.631 180.985 147.155 180.185 148.213C178.042 151.054 176.647 152.422 174.762 153.481C172.903 154.514 171.819 154.643 169.985 153.972Z" fill="white"/>
<path d="M179.72 153.377L179.178 152.835C179.178 152.835 188.178 141.4 189.791 137.187C191.021 133.971 191.746 133.06 192.723 133.06C193.269 133.06 193.716 133.184 193.922 133.494C194.284 134.036 194.632 134.708 194.167 137.006C193.393 140.724 192.205 143.177 188.641 148.471C187.815 149.685 186.756 151.027 186.291 151.492C185.207 152.499 182.767 153.532 181.347 153.765C180.443 153.894 180.185 153.842 179.72 153.377Z" fill="white"/>
<path fill-rule="evenodd" clip-rule="evenodd" d="M194.838 141.421C195.359 140.229 195.73 139.19 195.73 138.814C195.73 138.22 196.04 138.298 197.589 139.202C199.164 140.157 211.894 146.535 218.402 149.659C220.829 150.821 222.843 151.48 222.843 151.609C222.843 151.738 194.286 142.684 194.838 141.421Z" fill="#E7EAEE"/>
<path fill-rule="evenodd" clip-rule="evenodd" d="M106.489 142.893C103.209 140.75 98.2514 135.715 95.8499 132.125C92.4156 126.961 90.1433 121.435 89.0329 115.496C88.2324 111.184 88.2583 104.547 89.0587 100.7C89.885 96.775 90.9438 93.7796 92.8288 89.9838C95.0236 85.594 97.3476 82.3663 100.834 78.8803C104.252 75.4618 89.0587 89.5986 92.8288 114.892C95.8499 136.088 108.834 144.438 106.489 142.893Z" fill="#E7EAEE"/>
</svg>
